<?xml version="1.0" encoding="UTF-8"?>
<svg width="700pt" height="700pt" version="1.1" viewBox="0 0 700 700" xmlns="http://www.w3.org/2000/svg">
 <g>
  <path d="m186.67 268.33c0 40.227 15.977 78.805 44.422 107.25 28.441 28.441 67.02 44.422 107.24 44.422 40.227 0 78.805-15.98 107.25-44.422s44.422-67.02 44.422-107.25c0-40.223-15.98-78.801-44.422-107.24-28.441-28.445-67.02-44.422-107.25-44.422-40.207 0.046875-78.758 16.039-107.19 44.473s-44.426 66.984-44.473 107.19zm280 0c-0.050781 31.996-12.035 62.824-33.613 86.449-21.578 23.629-51.195 38.352-83.055 41.293v-255.48c31.859 2.9453 61.477 17.668 83.055 41.293 21.578 23.629 33.562 54.453 33.613 86.449zm-140-127.74v255.48c-42.895-3.8945-80.969-29.055-101.37-66.988-20.402-37.934-20.402-83.57 0-121.5 20.398-37.934 58.473-63.094 101.37-66.992z"/>
  <path d="m350 81.668v-46.668c0-6.4414-5.2227-11.668-11.668-11.668-6.4414 0-11.664 5.2266-11.664 11.668v46.668c0 6.4414 5.2227 11.664 11.664 11.664 6.4453 0 11.668-5.2227 11.668-11.664z"/>
  <path d="m326.67 455v46.668c0 6.4414 5.2227 11.664 11.664 11.664 6.4453 0 11.668-5.2227 11.668-11.664v-46.668c0-6.4414-5.2227-11.668-11.668-11.668-6.4414 0-11.664 5.2266-11.664 11.668z"/>
  <path d="m571.67 256.67h-46.668c-6.4414 0-11.668 5.2227-11.668 11.664 0 6.4453 5.2266 11.668 11.668 11.668h46.668c6.4414 0 11.664-5.2227 11.664-11.668 0-6.4414-5.2227-11.664-11.664-11.664z"/>
  <path d="m163.33 268.33c0.003907-3.0938-1.2266-6.0625-3.4141-8.25s-5.1562-3.418-8.25-3.4141h-46.668c-6.4414 0-11.668 5.2227-11.668 11.664 0 6.4453 5.2266 11.668 11.668 11.668h46.668c3.0938 0 6.0625-1.2266 8.25-3.4141s3.418-5.1562 3.4141-8.2539z"/>
  <path d="m165.09 95.09c-2.1914 2.1836-3.418 5.1523-3.418 8.2461s1.2266 6.0625 3.418 8.25l33.004 32.996c2.1836 2.2031 5.1562 3.4492 8.2617 3.457 3.1016 0.007813 6.082-1.2227 8.2773-3.418 2.1953-2.1953 3.4219-5.1758 3.4141-8.2812-0.011719-3.1016-1.2578-6.0742-3.4648-8.2578l-32.996-32.992c-2.1875-2.1914-5.1562-3.4219-8.25-3.4219s-6.0625 1.2305-8.2461 3.4219z"/>
  <path d="m478.58 392.09c-2.1797-2.2227-5.1562-3.4844-8.2695-3.5-3.1172-0.015626-6.1055 1.2148-8.3086 3.418-2.2031 2.1992-3.4336 5.1914-3.418 8.3047 0.015624 3.1172 1.2773 6.0938 3.5 8.2734l32.996 32.996c2.1797 2.2227 5.1602 3.4844 8.2734 3.5s6.1055-1.2148 8.3086-3.418c2.1992-2.1992 3.4297-5.1914 3.4141-8.3047-0.015625-3.1172-1.2734-6.0938-3.5-8.2734z"/>
  <path d="m511.58 95.09c-2.1875-2.1914-5.1523-3.418-8.2461-3.418s-6.0625 1.2266-8.25 3.418l-32.996 32.992c-2.2227 2.1797-3.4844 5.1602-3.5 8.2734-0.015626 3.1133 1.2148 6.1055 3.418 8.3086 2.1992 2.2031 5.1914 3.4297 8.3047 3.4141 3.1172-0.015625 6.0938-1.2734 8.2734-3.5l32.996-32.992c2.1875-2.1875 3.418-5.1562 3.418-8.25s-1.2305-6.0625-3.418-8.2461z"/>
  <path d="m165.09 441.58c2.1836 2.1875 5.1523 3.418 8.2461 3.418s6.0625-1.2305 8.25-3.418l32.996-32.996h-0.003906c2.2109-2.1797 3.457-5.1523 3.4648-8.2578 0.011719-3.1016-1.2148-6.082-3.4102-8.2773-2.1953-2.1953-5.1758-3.4258-8.2773-3.418-3.1055 0.007813-6.0781 1.25-8.2617 3.457l-33.004 32.996c-2.1914 2.1875-3.4219 5.1523-3.4219 8.2461 0 3.0977 1.2305 6.0625 3.4219 8.25z"/>
 </g>
</svg>
